<svg width="27" height="32" viewBox="0 0 27 32" fill="none" xmlns="http://www.w3.org/2000/svg">
<path d="M10.6667 9.57867C10.6667 10.1653 10.1867 10.6453 9.6 10.6453H1.06667C0.48 10.6453 0 11.1253 0 11.712V20.2773C0 20.864 0.48 21.344 1.06667 21.344C6.368 21.344 10.6667 17.0347 10.6667 11.712V11.6587C10.6667 11.0827 11.2427 10.6667 11.808 10.7627C14.2187 11.1893 16 13.4293 16 15.9893C16 18.5493 14.1547 20.7467 11.7227 21.2373C11.1147 21.3653 10.6667 21.8773 10.6667 22.496V30.6987C10.6667 31.4453 11.296 32.0427 12.0427 31.9787C20.224 31.2747 26.6667 24.3733 26.6667 15.9787C26.6667 7.584 20.224 0.704001 12.0427 1.33598e-06C11.3067 -0.0639987 10.6667 0.533335 10.6667 1.28V9.568V9.57867Z" fill="url(#paint0_linear_2813_1972)"/>
<defs>
<linearGradient id="paint0_linear_2813_1972" x1="4.71094e-07" y1="32.0047" x2="31.4658" y2="5.77343" gradientUnits="userSpaceOnUse">
<stop stop-color="#3CFF00"/>
<stop offset="1" stop-color="#00FFF2"/>
</linearGradient>
</defs>
</svg>
